<svg id="Capa_1" data-name="Capa 1" xmlns="http://www.w3.org/2000/svg" viewBox="0 0 435.26 512"><defs><style>.cls-1{fill:#709bbe;}.cls-2{fill:#7e7e7e;}</style></defs><title>people-colorfil</title><path class="cls-1" d="M106.3,239.08c5.16,20.27,33.28,14.69,33.28-4.08,0-75.22,3.6-82.25-6.48-90.41,23.05-142.06,221.64-141,245.81,0-10.06,8.19-6.46,15.18-6.46,90.4a16.73,16.73,0,0,0,7.71,13.88c0,58.52-23.74,55.1-95.12,74a17.67,17.67,0,0,0-30.75,12c0,20.23,29,25,34.62,4.63,57.63-15.28,108.28-20.1,108.28-77.7V250a16.77,16.77,0,0,0,8.52-10.91c55.55-1.13,55.57-84.38,0-85.51a16.65,16.65,0,0,0-8-10.52c1.43-17-2.08-39.45-11.85-61.08C318-58.28,117.22-3.4,114.07,132.51a49.76,49.76,0,0,0,.18,10.54,16.65,16.65,0,0,0-8,10.52A42.76,42.76,0,0,0,106.3,239.08Z" transform="translate(-38.37 0)"/><path class="cls-2" d="M472,472.08L461.13,440A153.76,153.76,0,0,0,322,335.92a122.46,122.46,0,0,1-17.5,11.28,34.69,34.69,0,0,1-57.31,12c-21.09-1.86-40.4-10.19-57.26-23.29A153.75,153.75,0,0,0,50.87,440L40,472.08A30.21,30.21,0,0,0,68.58,512H443.42A30.22,30.22,0,0,0,472,472.08Z" transform="translate(-38.37 0)"/><path class="cls-2" d="M297.73,311.52c36.67-25.78,62.32-82.7,62.32-137.73,0-156.4-208.09-156.23-208.09,0,0,66.88,37.87,136.46,87.41,149.59A34.54,34.54,0,0,1,297.73,311.52Z" transform="translate(-38.37 0)"/></svg>