<svg id="Capa_1" data-name="Capa 1" xmlns="http://www.w3.org/2000/svg" viewBox="0 0 512 512"><defs><style>.cls-1{fill:#7e7e7e;}.cls-2{fill:#d6020e;}</style></defs><title>calendar-colorful</title><g id="_222._Calender" data-name="222. Calender"><path class="cls-1" d="M323.37,53.89H188.63v53.9H323.37V53.89Zm134.73,0H431.16v53.9H458.1V458.1H53.9V107.79H80.84V53.89H53.9A53.89,53.89,0,0,0,0,107.79v350.3A53.9,53.9,0,0,0,53.9,512H458.1A53.9,53.9,0,0,0,512,458.09V107.79A53.89,53.89,0,0,0,458.1,53.89Zm-323.37,53.9a27,27,0,0,0,26.95-26.95V27a26.95,26.95,0,1,0-53.9,0V80.84A27,27,0,0,0,134.74,107.79Zm242.53,0a27,27,0,0,0,26.95-26.95V27a26.95,26.95,0,1,0-53.9,0V80.84A27,27,0,0,0,377.27,107.79Z" transform="translate(0 0)"/></g><g id="_222._Calender-2" data-name="222. Calender"><path class="cls-2" d="M296.42,269.46h0a27,27,0,0,0,0,53.91h0A27,27,0,0,0,296.42,269.46Zm-80.84-26.93a26.95,26.95,0,1,0-26.94-26.95A27,27,0,0,0,215.58,242.53Zm80.84-53.89h0a26.95,26.95,0,1,0,0,53.89h0A26.95,26.95,0,1,0,296.42,188.63Zm80.85,53.89a26.95,26.95,0,1,0-26.95-26.95A27,27,0,0,0,377.27,242.53Zm0,80.84a26.95,26.95,0,1,0-26.95-26.95A27,27,0,0,0,377.27,323.37Zm-161.69,0a27,27,0,1,0-26.94-26.95A27,27,0,0,0,215.58,323.37Zm-80.84,80.85a26.95,26.95,0,1,0-26.95-26.95A27,27,0,0,0,134.74,404.21Zm0-80.85a27,27,0,1,0-26.95-26.95A27,27,0,0,0,134.74,323.37Zm0-80.84a26.95,26.95,0,1,0-26.95-26.95A27,27,0,0,0,134.74,242.53Zm80.84,161.69a26.95,26.95,0,1,0-26.94-26.95A27,27,0,0,0,215.58,404.21Z" transform="translate(0 0)"/></g></svg>