<svg id="Capa_1" data-name="Capa 1" xmlns="http://www.w3.org/2000/svg" viewBox="0 0 512 332.71"><defs><style>.cls-1{fill:#7e7e7e;}.cls-2{fill:#72a046;}</style></defs><title>business-colorful</title><path class="cls-1" d="M241.65,307.07H219.23a16.07,16.07,0,0,1-15.3-11.69v-0.21c6.16-11.37,32.52-24.76,36.66-26.78a2.05,2.05,0,0,1,1.06-.32c6.69-.74,71.52-8.29,71.52-42.83a25.89,25.89,0,0,0-.11-2.87s-2.34-27.63-81.08-4.78c-0.21,0-.32.11-0.53,0.11l-87.25,10.1a0.8,0.8,0,0,0-.43.11c-3.29.85-47.82,12.33-79.38,42a3.43,3.43,0,0,1-2.23.85H54.62a0.28,0.28,0,0,1-.32-0.32v-2.66A11.84,11.84,0,0,0,42.51,256H11.8A11.84,11.84,0,0,0,0,267.75V392.83a11.84,11.84,0,0,0,11.8,11.8h30.5a11.84,11.84,0,0,0,11.8-11.8,0.28,0.28,0,0,1,.32-0.32c38.47,4.14,170,19,180.34,27a3.32,3.32,0,0,0,1.06.53c4.78,1.38,34,8.29,49.2-11.16,3.93-5,52.5-49.1,75.13-74.07a0.21,0.21,0,0,1,.21-0.11" transform="translate(0 -89.65)"/><path class="cls-2" d="M252,334.81c0.11-.11,108.25-0.11,108.35-0.11H464.92A47.17,47.17,0,0,0,512,287.62V133.43a43.92,43.92,0,0,0-43.78-43.78H223a47.17,47.17,0,0,0-47.08,47.08v56.22a3.32,3.32,0,0,0,3.61,3.29l20.83-2.44a3.24,3.24,0,0,0,2.87-3.29V183.8a3.31,3.31,0,0,1,3.29-3.29H485.11a3.31,3.31,0,0,1,3.29,3.29V287.94a19.18,19.18,0,0,1-19.13,19.13h-250m-13-168.22a3,3,0,0,1-3-3A19,19,0,0,1,222.21,117H469.49a19,19,0,0,1,18.92,18.92,3,3,0,0,1-3,3H206.27Z" transform="translate(0 -89.65)"/></svg>