<svg id="Capa_1" data-name="Capa 1" xmlns="http://www.w3.org/2000/svg" viewBox="0 0 512 314.57"><defs><style>.cls-1{fill:#7e7e7e;}.cls-2{fill:#f16d01;}</style></defs><title>transport-colorfull</title><path class="cls-1" d="M151.67,323.15a45.07,45.07,0,1,0,45,45A45.1,45.1,0,0,0,151.67,323.15Zm0,67.62a22.55,22.55,0,1,1,22.52-22.59A22.62,22.62,0,0,1,151.67,390.77Zm-38.83-67.6H11.9a7.24,7.24,0,0,0-7.24,7.24v22a7.24,7.24,0,0,0,7.24,7.24H92.81A59.42,59.42,0,0,1,112.85,323.17Zm274.48,0a45.07,45.07,0,1,0,45,45A45.08,45.08,0,0,0,387.33,323.15Zm0,67.62a22.55,22.55,0,1,1,22.52-22.59A22.56,22.56,0,0,1,387.33,390.77Zm117.43-67.62H487.17V224.76a58,58,0,0,0-9.92-32.36l-44.09-65.3a57.86,57.86,0,0,0-48-25.48H316.82a14.48,14.48,0,0,0-14.48,14.48V323.15H190.48a59.54,59.54,0,0,1,20,36.49H328.54a59.43,59.43,0,0,1,117.65,0h58.57A7.21,7.21,0,0,0,512,352.4v-22A7.21,7.21,0,0,0,504.76,323.15ZM432.65,205.43H342.44a7.21,7.21,0,0,1-7.24-7.24v-50a7.26,7.26,0,0,1,7.24-7.24h55a7.24,7.24,0,0,1,5.94,3l35.26,50.1A7.21,7.21,0,0,1,432.65,205.43Z" transform="translate(0 -98.71)"/><path class="cls-2" d="M267.87,308.67H14.48A14.48,14.48,0,0,1,0,294.19V229a14.48,14.48,0,0,1,14.48-14.48H267.87A14.48,14.48,0,0,1,282.35,229v65.16A14.48,14.48,0,0,1,267.87,308.67Zm-152-115.84H14.48A14.48,14.48,0,0,1,0,178.35V113.19A14.48,14.48,0,0,1,14.48,98.71H115.84a14.48,14.48,0,0,1,14.48,14.48v65.16A14.48,14.48,0,0,1,115.84,192.83Zm152,0H166.52A14.48,14.48,0,0,1,152,178.35V113.19a14.48,14.48,0,0,1,14.48-14.48H267.87a14.48,14.48,0,0,1,14.48,14.48v65.16A14.48,14.48,0,0,1,267.87,192.83Z" transform="translate(0 -98.71)"/></svg>